<svg id="Layer_1" data-name="Layer 1" xmlns="http://www.w3.org/2000/svg" xmlns:xlink="http://www.w3.org/1999/xlink" viewBox="0 0 330.94 191.46"><defs><style>.cls-1{opacity:0.4;}.cls-2{fill:url(#linear-gradient);}.cls-3,.cls-44,.cls-6{fill:#3578e5;}.cls-3,.cls-30,.cls-31,.cls-34,.cls-36,.cls-37{isolation:isolate;}.cls-3,.cls-36{opacity:0.2;}.cls-36,.cls-4{fill:#fff;}.cls-5{fill:#e6e6e6;}.cls-31,.cls-7{fill:#535461;}.cls-34,.cls-37,.cls-8{opacity:0.1;}.cls-9{fill:url(#linear-gradient-2);}.cls-10{fill:url(#linear-gradient-3);}.cls-11{fill:url(#linear-gradient-4);}.cls-12{fill:url(#linear-gradient-5);}.cls-13{opacity:0.7;}.cls-14{fill:url(#linear-gradient-6);}.cls-15{fill:url(#linear-gradient-7);}.cls-16{fill:url(#linear-gradient-8);}.cls-17{fill:url(#linear-gradient-9);}.cls-18{fill:url(#linear-gradient-10);}.cls-19{fill:url(#linear-gradient-11);}.cls-20{fill:url(#linear-gradient-12);}.cls-21{fill:url(#linear-gradient-13);}.cls-22{fill:url(#linear-gradient-14);}.cls-23{fill:url(#linear-gradient-15);}.cls-24{fill:url(#linear-gradient-16);}.cls-25{fill:url(#linear-gradient-17);}.cls-26{fill:url(#linear-gradient-18);}.cls-27{fill:url(#linear-gradient-19);}.cls-28{fill:url(#linear-gradient-20);}.cls-29{fill:url(#linear-gradient-21);}.cls-30,.cls-34{fill:#f55f44;}.cls-30{opacity:0.05;}.cls-31{opacity:0.25;}.cls-32{fill:url(#linear-gradient-22);}.cls-33{fill:url(#linear-gradient-23);}.cls-35{fill:#afc0e0;}.cls-38{fill:#e3e8f4;}.cls-39{opacity:0.06;}.cls-40{fill:#2f2e41;}.cls-41{fill:#ffb8b8;}.cls-42{fill:#e4e4e4;}.cls-43{fill:#e5e5e5;}.cls-44{opacity:0.4;}.cls-45{fill:#3f3d56;}.cls-46,.cls-47{fill:none;stroke:#3f3d56;stroke-miterlimit:10;}.cls-47{stroke-dasharray:12.89 12.89;}.cls-48{fill:url(#linear-gradient-24);}.cls-49{fill:url(#linear-gradient-25);}</style><linearGradient id="linear-gradient" x1="233.09" y1="-16.21" x2="233.09" y2="-7.9" gradientTransform="matrix(1, 0, 0, -1, -137.41, 137.05)" gradientUnits="userSpaceOnUse"><stop offset="0" stop-color="gray" stop-opacity="0.25"/><stop offset="0.54" stop-color="gray" stop-opacity="0.12"/><stop offset="1" stop-color="gray" stop-opacity="0.1"/></linearGradient><linearGradient id="linear-gradient-2" x1="280.84" y1="34.8" x2="280.84" y2="1.18" gradientTransform="matrix(1, 0, 0, -1, 0, 192.2)" gradientUnits="userSpaceOnUse"><stop offset="0" stop-color="#e0e0e0"/><stop offset="0.31" stop-color="#fccc63"/><stop offset="0.77" stop-color="#f55f44"/></linearGradient><linearGradient id="linear-gradient-3" x1="278.24" y1="19.12" x2="278.24" y2="11.59" xlink:href="#linear-gradient-2"/><linearGradient id="linear-gradient-4" x1="283.89" y1="19.12" x2="283.89" y2="11.59" xlink:href="#linear-gradient-2"/><linearGradient id="linear-gradient-5" x1="293" y1="19.12" x2="293" y2="11.59" xlink:href="#linear-gradient-2"/><linearGradient id="linear-gradient-6" x1="418.33" y1="-64.21" x2="418.33" y2="-41.69" xlink:href="#linear-gradient"/><linearGradient id="linear-gradient-7" x1="260.43" y1="22.81" x2="260.43" y2="5.3" gradientTransform="matrix(1, 0, 0, -1, 0, 192.2)" gradientUnits="userSpaceOnUse"><stop offset="0" stop-color="#f2f2f2"/><stop offset="0.31" stop-color="#e6e6e6"/><stop offset="0.77" stop-color="#ccc"/></linearGradient><linearGradient id="linear-gradient-8" x1="260.38" y1="20.36" x2="260.38" y2="1.18" xlink:href="#linear-gradient-7"/><linearGradient id="linear-gradient-9" x1="299.35" y1="20.36" x2="299.35" y2="1.18" xlink:href="#linear-gradient-7"/><linearGradient id="linear-gradient-10" x1="298.87" y1="18.7" x2="298.87" y2="1.18" xlink:href="#linear-gradient-7"/><linearGradient id="linear-gradient-11" x1="417.62" y1="-47.91" x2="417.62" y2="-63.77" gradientTransform="matrix(1, 0, 0, -1, -137.41, 137.05)" xlink:href="#linear-gradient-7"/><linearGradient id="linear-gradient-12" x1="406.5" y1="-52.47" x2="406.5" y2="-63.77" gradientTransform="matrix(1, 0, 0, -1, -137.41, 137.05)" xlink:href="#linear-gradient-7"/><linearGradient id="linear-gradient-13" x1="428.49" y1="-54.23" x2="428.49" y2="-63.77" gradientTransform="matrix(1, 0, 0, -1, -137.41, 137.05)" xlink:href="#linear-gradient-7"/><linearGradient id="linear-gradient-14" x1="445.04" y1="-52.47" x2="445.04" y2="-63.77" gradientTransform="matrix(1, 0, 0, -1, -137.41, 137.05)" xlink:href="#linear-gradient-7"/><linearGradient id="linear-gradient-15" x1="391.62" y1="-52.47" x2="391.62" y2="-63.77" gradientTransform="matrix(1, 0, 0, -1, -137.41, 137.05)" xlink:href="#linear-gradient-7"/><linearGradient id="linear-gradient-16" x1="288.35" y1="30.57" x2="288.35" y2="35.87" gradientTransform="matrix(1, 0, 0, -1, 0, 192.2)" xlink:href="#linear-gradient"/><linearGradient id="linear-gradient-17" x1="288.35" y1="35.68" x2="288.35" y2="30.76" xlink:href="#linear-gradient-7"/><linearGradient id="linear-gradient-18" x1="300.5" y1="4.73" x2="300.5" y2="10.52" gradientTransform="matrix(1, 0, 0, -1, 0, 192.2)" xlink:href="#linear-gradient"/><linearGradient id="linear-gradient-19" x1="300.5" y1="10.37" x2="300.5" y2="4.87" gradientTransform="matrix(1, 0, 0, -1, 0, 192.2)" gradientUnits="userSpaceOnUse"><stop offset="0" stop-color="#f2f2f2"/><stop offset="0.31" stop-color="#e0e0e0"/><stop offset="0.77" stop-color="#b3b3b3"/></linearGradient><linearGradient id="linear-gradient-20" x1="176.7" y1="20.93" x2="176.7" y2="27.29" gradientTransform="matrix(1, 0, 0, -1, 0, 192.2)" xlink:href="#linear-gradient"/><linearGradient id="linear-gradient-21" x1="176.7" y1="27.15" x2="176.7" y2="21.07" xlink:href="#linear-gradient-7"/><linearGradient id="linear-gradient-22" x1="300.5" y1="10.37" x2="300.5" y2="4.87" xlink:href="#linear-gradient-7"/><linearGradient id="linear-gradient-23" x1="370.77" y1="2.25" x2="370.77" y2="10.55" xlink:href="#linear-gradient"/><linearGradient id="linear-gradient-24" x1="166.66" y1="4.32" x2="166.66" y2="10.57" xlink:href="#linear-gradient"/><linearGradient id="linear-gradient-25" x1="166.5" y1="-31.42" x2="166.5" y2="-25.37" xlink:href="#linear-gradient"/></defs><g class="cls-1"><path class="cls-2" d="M99,146.61h0a4.19,4.19,0,0,0-1.24-1.09h0a4.15,4.15,0,0,0-4.18,7.18,4.22,4.22,0,0,0,2.11.56H96a4.16,4.16,0,0,0,3-6.65Z" transform="translate(0 -9.8)"/></g><path class="cls-3" d="M99.61,149.11A3.92,3.92,0,0,1,95.93,153h-.25a3.93,3.93,0,1,1,0-7.85,3.87,3.87,0,0,1,2,.53h0a4,4,0,0,1,1.17,1h0A3.91,3.91,0,0,1,99.61,149.11Z" transform="translate(0 -9.8)"/><circle class="cls-4" cx="159.19" cy="4.33" r="0.99"/><circle class="cls-4" cx="162.94" cy="4.33" r="0.99"/><circle class="cls-4" cx="166.7" cy="4.33" r="0.99"/><path class="cls-5" d="M134.92,91.66H12.47A1.67,1.67,0,0,1,10.82,90V14.16H136.58V90A1.67,1.67,0,0,1,134.92,91.66Z" transform="translate(0 -9.8)"/><path class="cls-4" d="M131.33,86.92H16.06a1.68,1.68,0,0,1-1.67-1.68V22.78a1.67,1.67,0,0,1,1.67-1.67H131.33A1.68,1.68,0,0,1,133,22.78V85.24A1.68,1.68,0,0,1,131.33,86.92Z" transform="translate(0 -9.8)"/><path class="cls-6" d="M136.52,16.5H10.76V12.63A1.66,1.66,0,0,1,12.42,11H134.87a1.65,1.65,0,0,1,1.65,1.66Z" transform="translate(0 -9.8)"/><circle class="cls-4" cx="14.82" cy="4" r="0.99"/><circle class="cls-4" cx="18.58" cy="4" r="0.99"/><circle class="cls-4" cx="22.33" cy="4" r="0.99"/><rect class="cls-5" x="26.23" y="22.51" width="11.88" height="5.26"/><rect class="cls-5" x="50" y="33.42" width="11.88" height="5.26"/><rect class="cls-6" x="26.23" y="49.78" width="11.88" height="5.26"/><rect class="cls-6" x="50" y="60.69" width="11.88" height="5.26"/><rect class="cls-6" x="109.2" y="66.14" width="11.88" height="5.26"/><rect class="cls-5" x="97.32" y="44.32" width="11.88" height="5.26"/><rect class="cls-6" x="61.88" y="44.32" width="23.76" height="5.26"/><rect class="cls-6" x="61.88" y="16.86" width="23.76" height="5.26"/><path class="cls-5" d="M14.35,21V87H133.16V21Zm118.42,5.47H121.32V21.4h11.45ZM62.11,64.77V59.69H85.4v5.08Zm23.29.39v5.08H62.11V65.16Zm0-21.88v5.08H62.11V43.28Zm-23.29-.39V37.81H85.4v5.08Zm0,10.94V48.75H85.4v5.08Zm23.29.39V59.3H62.11V54.22ZM61.72,48.36H50.27V43.28H61.72Zm0,.39v5.08H50.27V48.75Zm0,5.47V59.3H50.27V54.22Zm0,5.47v5.08H50.27V59.69Zm24.07,0H97.25v5.08H85.79Zm0-.39V54.22H97.25V59.3Zm0-5.47V48.75H97.25v5.08Zm0-5.47V43.28H97.25v5.08Zm0-5.47V37.81H97.25v5.08Zm0-5.47V32.34H97.25v5.08Zm-.39,0H62.11V32.34H85.4Zm-23.68,0H50.27V32.34H61.72Zm0,.39v5.08H50.27V37.81ZM49.88,42.89H38.43V37.81H49.88Zm0,.39v5.08H38.43V43.28Zm0,5.47v5.08H38.43V48.75Zm0,5.47V59.3H38.43V54.22Zm0,5.47v5.08H38.43V59.69Zm0,5.47v5.08H38.43V65.16Zm.39,0H61.72v5.08H50.27Zm11.45,5.47v5.08H50.27V70.63Zm.39,0H85.4v5.08H62.11Zm23.68,0H97.25v5.08H85.79Zm0-.39V65.16H97.25v5.08Zm11.84-5.08h11.46v5.08H97.63Zm0-.39V59.69h11.46v5.08Zm0-5.47V54.22h11.46V59.3Zm0-5.47V48.75h11.46v5.08Zm0-5.47V43.28h11.46v5.08Zm0-5.47V37.81h11.46v5.08Zm0-5.47V32.34h11.46v5.08Zm0-5.47V26.87h11.46V32Zm-.38,0H85.79V26.87H97.25ZM85.4,32H62.11V26.87H85.4ZM61.72,32H50.27V26.87H61.72ZM49.88,32H38.43V26.87H49.88Zm0,.39v5.08H38.43V32.34ZM38,37.42H26.59V32.34H38Zm0,.39v5.08H26.59V37.81Zm0,5.47v5.08H26.59V43.28Zm0,5.47v5.08H26.59V48.75Zm0,5.47V59.3H26.59V54.22Zm0,5.47v5.08H26.59V59.69Zm0,5.47v5.08H26.59V65.16Zm0,5.47v5.08H26.59V70.63Zm.39,0H49.88v5.08H38.43ZM49.88,76.1v5.08H38.43V76.1Zm.39,0H61.72v5.08H50.27Zm11.84,0H85.4v5.08H62.11Zm23.68,0H97.25v5.08H85.79Zm11.84,0h11.46v5.08H97.63Zm0-.39V70.63h11.46v5.08Zm11.85-5.08h11.45v5.08H109.48Zm0-.39V65.16h11.45v5.08Zm0-5.47V59.69h11.45v5.08Zm0-5.47V54.22h11.45V59.3Zm0-5.47V48.75h11.45v5.08Zm0-5.47V43.28h11.45v5.08Zm0-5.47V37.81h11.45v5.08Zm0-5.47V32.34h11.45v5.08Zm0-5.47V26.87h11.45V32Zm0-5.47V21.4h11.45v5.08Zm-.39,0H97.63V21.4h11.46Zm-11.84,0H85.79V21.4H97.25Zm-11.85,0H62.11V21.4H85.4Zm-23.68,0H50.27V21.4H61.72Zm-11.84,0H38.43V21.4H49.88ZM38,26.48H26.59V21.4H38Zm0,.39V32H26.59V26.87ZM26.2,32H14.74V26.87H26.2Zm0,.39v5.08H14.74V32.34Zm0,5.47v5.08H14.74V37.81Zm0,5.47v5.08H14.74V43.28Zm0,5.47v5.08H14.74V48.75Zm0,5.47V59.3H14.74V54.22Zm0,5.47v5.08H14.74V59.69Zm0,5.47v5.08H14.74V65.16Zm0,5.47v5.08H14.74V70.63Zm0,5.47v5.08H14.74V76.1Zm.39,0H38v5.08H26.59ZM38,81.57v5.08H26.59V81.57Zm.39,0H49.88v5.08H38.43Zm11.84,0H61.72v5.08H50.27Zm11.84,0H85.4v5.08H62.11Zm23.68,0H97.25v5.08H85.79Zm11.84,0h11.46v5.08H97.63Zm11.85,0h11.45v5.08H109.48Zm0-.39V76.1h11.45v5.08Zm11.84-5.08h11.45v5.08H121.32Zm0-.39V70.63h11.45v5.08Zm0-5.47V65.16h11.45v5.08Zm0-5.47V59.69h11.45v5.08Zm0-5.47V54.22h11.45V59.3Zm0-5.47V48.75h11.45v5.08Zm0-5.47V43.28h11.45v5.08Zm0-5.47V37.81h11.45v5.08Zm0-5.47V32.34h11.45v5.08Zm0-5.47V26.87h11.45V32ZM26.2,21.4v5.08H14.74V21.4ZM14.74,81.57H26.2v5.08H14.74Zm106.58,5.08V81.57h11.45v5.08Z" transform="translate(0 -9.8)"/><polygon class="cls-7" points="279.63 173.08 276.86 173.08 277.35 169.71 279.13 169.71 279.63 173.08"/><g class="cls-8"><polygon points="277.21 171.05 279.27 171.05 279.13 170.11 277.35 170.11 277.21 171.05"/></g><polygon class="cls-7" points="285.28 173.08 282.5 173.08 283 169.71 284.78 169.71 285.28 173.08"/><g class="cls-8"><polygon points="282.86 171.05 284.92 171.05 284.78 170.11 283 170.11 282.86 171.05"/></g><rect class="cls-9" x="273.89" y="157.4" width="13.88" height="33.62"/><rect class="cls-10" x="276.85" y="173.08" width="2.77" height="7.53"/><rect class="cls-11" x="282.5" y="173.08" width="2.77" height="7.53"/><rect class="cls-12" x="291.62" y="173.08" width="2.77" height="7.53"/><g class="cls-13"><path class="cls-14" d="M310,189.58h0a10,10,0,0,0-19.83,1.7v.14h0a10.08,10.08,0,0,0-1.09.24,9.12,9.12,0,0,0-17.15-1.55,8.65,8.65,0,0,0-2.51-.58h0a10.08,10.08,0,0,0-.69-2.27,9.11,9.11,0,0,0-18.17-.24,10.07,10.07,0,0,0-.89,3.17h0a9.14,9.14,0,0,0-5.23,11.07h73.05a9.11,9.11,0,0,0-6.09-11.37A9.73,9.73,0,0,0,310,189.58Z" transform="translate(0 -9.8)"/></g><circle class="cls-15" cx="260.43" cy="178.15" r="8.76"/><circle class="cls-16" cx="260.38" cy="181.43" r="9.59"/><circle class="cls-17" cx="299.35" cy="181.43" r="9.59"/><circle class="cls-18" cx="298.87" cy="182.26" r="8.76"/><path class="cls-19" d="M289,193.73a8.72,8.72,0,0,1-3.62,7.09H275.08A8.76,8.76,0,1,1,289,193.73Z" transform="translate(0 -9.8)"/><path class="cls-20" d="M277.85,198.28a8.77,8.77,0,0,1-.37,2.54H260.71m0,0A8.77,8.77,0,0,1,269,189.52h.06c.24,0,.49,0,.73,0a9.07,9.07,0,0,1,2.41.55,8.78,8.78,0,0,1,5.61,8.18Z" transform="translate(0 -9.8)"/><path class="cls-21" d="M299.83,200q0,.39,0,.78H282.35c0-.26,0-.52,0-.79a8.76,8.76,0,0,1,7.44-8.66,9.61,9.61,0,0,1,1.31-.09c.23,0,.45,0,.67,0a8.77,8.77,0,0,1,7.32,5.14,2.44,2.44,0,0,1,.1.24A8.56,8.56,0,0,1,299.83,200Z" transform="translate(0 -9.8)"/><path class="cls-22" d="M316.38,198.28a8.77,8.77,0,0,1-.37,2.54H299.25a8.84,8.84,0,0,1-.23-4.15c0-.08,0-.16.05-.23a8.75,8.75,0,0,1,8.56-6.92c.28,0,.55,0,.82,0l.36,0A8.75,8.75,0,0,1,316.38,198.28Z" transform="translate(0 -9.8)"/><path class="cls-23" d="M262.59,200.82a2.29,2.29,0,0,0,.08-.28,8.77,8.77,0,0,0-10.8-10.71,9.51,9.51,0,0,0-1,.36,8.77,8.77,0,0,0-5,10.63Z" transform="translate(0 -9.8)"/><g class="cls-13"><circle class="cls-24" cx="288.35" cy="158.98" r="2.65"/></g><circle class="cls-25" cx="288.35" cy="158.98" r="2.46"/><g class="cls-13"><circle class="cls-26" cx="300.5" cy="184.58" r="2.89"/></g><circle class="cls-27" cx="300.5" cy="184.58" r="2.75"/><g class="cls-13"><circle class="cls-28" cx="176.7" cy="168.09" r="3.18"/></g><circle class="cls-29" cx="176.7" cy="168.09" r="3.04"/><path class="cls-30" d="M317.84,116.82a5,5,0,0,1-3.77,2.11c0-.07,0-.14,0-.21a2.38,2.38,0,0,1,3.78-1.9Z" transform="translate(0 -9.8)"/><circle class="cls-31" cx="290.81" cy="107.64" r="1.01"/><circle class="cls-31" cx="265.78" cy="44.25" r="1.01"/><circle class="cls-31" cx="329.92" cy="140.01" r="1.01"/><circle class="cls-31" cx="204.61" cy="92.02" r="1.01"/><circle class="cls-31" cx="282.65" cy="24.87" r="1.01"/><polygon class="cls-31" points="315.9 116.06 315 116.06 315 115.16 314.63 115.16 314.63 116.06 313.73 116.06 313.73 116.43 314.63 116.43 314.63 117.33 315 117.33 315 116.43 315.9 116.43 315.9 116.06"/><polygon class="cls-31" points="179.99 87.89 179.09 87.89 179.09 86.99 178.72 86.99 178.72 87.89 177.82 87.89 177.82 88.26 178.72 88.26 178.72 89.16 179.09 89.16 179.09 88.26 179.99 88.26 179.99 87.89"/><polygon class="cls-31" points="266.73 67.47 265.83 67.47 265.83 66.57 265.46 66.57 265.46 67.47 264.56 67.47 264.56 67.84 265.46 67.84 265.46 68.74 265.83 68.74 265.83 67.84 266.73 67.84 266.73 67.47"/><polygon class="cls-31" points="306.06 62 305.16 62 305.16 61.1 304.79 61.1 304.79 62 303.89 62 303.89 62.37 304.79 62.37 304.79 63.27 305.16 63.27 305.16 62.37 306.06 62.37 306.06 62"/><polygon class="cls-31" points="273.09 140.94 272.19 140.94 272.19 140.04 271.82 140.04 271.82 140.94 270.92 140.94 270.92 141.31 271.82 141.31 271.82 142.21 272.19 142.21 272.19 141.31 273.09 141.31 273.09 140.94"/><polygon class="cls-31" points="180.82 79.18 179.92 79.18 179.92 78.28 179.56 78.28 179.56 79.18 178.65 79.18 178.65 79.55 179.56 79.55 179.56 80.45 179.92 80.45 179.92 79.55 180.82 79.55 180.82 79.18"/><polygon class="cls-31" points="259.45 0.9 258.55 0.9 258.55 0 258.18 0 258.18 0.9 257.28 0.9 257.28 1.27 258.18 1.27 258.18 2.17 258.55 2.17 258.55 1.27 259.45 1.27 259.45 0.9"/><polygon class="cls-31" points="193.26 127.78 192.36 127.78 192.36 126.88 191.99 126.88 191.99 127.78 191.09 127.78 191.09 128.14 191.99 128.14 191.99 129.05 192.36 129.05 192.36 128.14 193.26 128.14 193.26 127.78"/><circle class="cls-32" cx="300.5" cy="184.58" r="2.75"/><g class="cls-1"><path class="cls-33" d="M236.69,128.16h0a4.2,4.2,0,0,0-1.24-1.1h0a4.15,4.15,0,0,0-4.18,7.18,4.08,4.08,0,0,0,2.1.56h.26a4.16,4.16,0,0,0,3.06-6.64Z" transform="translate(0 -9.8)"/></g><path class="cls-3" d="M237.3,130.66a3.94,3.94,0,0,1-3.68,3.92h-.25a3.93,3.93,0,1,1,2-7.33h0a3.74,3.74,0,0,1,1.17,1h0A3.94,3.94,0,0,1,237.3,130.66Z" transform="translate(0 -9.8)"/><path class="cls-34" d="M232.4,128.17a3.7,3.7,0,0,0-.59.31.86.86,0,0,0-.32.28.39.39,0,0,0,0,.39.53.53,0,0,0,.44.16.85.85,0,0,0,.8-.26l.34-.31c.11-.11.24-.25.2-.4a.37.37,0,0,0-.29-.19,1.17,1.17,0,0,0-.84.14" transform="translate(0 -9.8)"/><circle class="cls-34" cx="230.99" cy="122.41" r="0.21"/><circle class="cls-34" cx="235.2" cy="121.1" r="0.76"/><path class="cls-34" d="M236.5,128.3h0a1,1,0,0,1-1,1,1,1,0,0,1-.13-2.06h0A3.9,3.9,0,0,1,236.5,128.3Z" transform="translate(0 -9.8)"/><path class="cls-34" d="M236.58,132.92a3.94,3.94,0,0,1-3,1.66v-.17a1.86,1.86,0,0,1,1.86-1.86,1.82,1.82,0,0,1,1.12.37Z" transform="translate(0 -9.8)"/><path class="cls-6" d="M262.36,173.58a2.77,2.77,0,0,1,2.42.64s-.62.56-2.06-.06Z" transform="translate(0 -9.8)"/><path class="cls-6" d="M262.2,173.56a2.77,2.77,0,0,0-.31,2.48s.74-.36.72-1.93Z" transform="translate(0 -9.8)"/><path class="cls-6" d="M261.23,171.72s.52-1.12,3,.23a1.32,1.32,0,0,1-1.31.76A1.6,1.6,0,0,1,261.23,171.72Z" transform="translate(0 -9.8)"/><path class="cls-6" d="M267.34,164.22a1.67,1.67,0,0,1,1.46.4s-.37.33-1.24,0Z" transform="translate(0 -9.8)"/><path class="cls-6" d="M267.25,164.22a1.64,1.64,0,0,0-.19,1.5s.45-.23.44-1.17Z" transform="translate(0 -9.8)"/><path class="cls-6" d="M266.66,163.1s.31-.68,1.8.14a.8.8,0,0,1-.79.46A1,1,0,0,1,266.66,163.1Z" transform="translate(0 -9.8)"/><path class="cls-6" d="M266.56,163.06s-.74,0-.7,1.66a.79.79,0,0,0,.77-.49A1,1,0,0,0,266.56,163.06Z" transform="translate(0 -9.8)"/><path class="cls-6" d="M266,161.74s.34-1.18,1.9-.46c0,0-.27,1.08-1.72.84Z" transform="translate(0 -9.8)"/><path class="cls-6" d="M265.46,160s.71-1.21,2.17-.23c0,0-.41,1.13-2,.64Z" transform="translate(0 -9.8)"/><path class="cls-6" d="M266,161.71s-1.08-.57-1.66,1a1.37,1.37,0,0,0,1.81-.65Z" transform="translate(0 -9.8)"/><path class="cls-35" d="M272.06,171.72a4,4,0,0,0-.83.24c-6,2.38-5.86,17.95-5.86,17.95h-1.75a112.09,112.09,0,0,0-3-16.22c-2.17-8.58,6.72-16.27,8.53-17.73l.31-.24C278.46,159,272.06,171.72,272.06,171.72Z" transform="translate(0 -9.8)"/><path class="cls-36" d="M270.16,156a6.32,6.32,0,0,0-.65-.27l-.32.25c-1.8,1.45-10.7,9.14-8.53,17.72a110.41,110.41,0,0,1,3,16.22h1a108.78,108.78,0,0,0-3-16.22C259.48,165.15,268.29,157.49,270.16,156Z" transform="translate(0 -9.8)"/><path class="cls-35" d="M301.61,173.69a110.41,110.41,0,0,0-3,16.22h-1.76s.12-16.28-6.26-18.09a2.13,2.13,0,0,0-.42-.1s-6.41-12.71,2.55-16l.26.19C294.68,157.24,303.8,165,301.61,173.69Z" transform="translate(0 -9.8)"/><path class="cls-37" d="M272.06,171.72a4,4,0,0,0-.83.24,107.75,107.75,0,0,1-2-16l.31-.25C278.46,159,272.06,171.72,272.06,171.72Z" transform="translate(0 -9.8)"/><path class="cls-37" d="M293,155.92a99.41,99.41,0,0,1-2.39,15.9l-.42-.1s-6.41-12.71,2.55-16Z" transform="translate(0 -9.8)"/><path class="cls-38" d="M289.74,174.13c-.62,2.44-1.34,4.94-2.18,7.51-1.24,3.85-3.94,4.11-13.47,0a72.63,72.63,0,0,1-2-7.25c-2.3-10-5.07-29.15.82-48.78a73.19,73.19,0,0,1,7.42-16.84s5,5.77,8.73,16.83S295.1,153,289.74,174.13Z" transform="translate(0 -9.8)"/><circle class="cls-35" cx="281.13" cy="131.4" r="7.91"/><path class="cls-6" d="M286.74,141.2a5.61,5.61,0,0,1-9.16,4.34,5.72,5.72,0,0,1-1.06-1.14,6,6,0,0,1-.36-.6,5.59,5.59,0,0,1-.64-2.6v-.13a5.64,5.64,0,0,1,4.09-5.28,5.58,5.58,0,0,1,1.35-.2h.17a5.61,5.61,0,0,1,5.61,5.61Z" transform="translate(0 -9.8)"/><path class="cls-35" d="M289.06,125.6a17.83,17.83,0,0,1-16.15,0,72.88,72.88,0,0,1,7.42-16.83S285.36,114.54,289.06,125.6Z" transform="translate(0 -9.8)"/><path class="cls-35" d="M289.74,174.13q-.63,2.48-1.4,5c-.25.82-.51,1.64-.78,2.47-.4,1.24-3.94,4.11-13.47,0,0,0-.31-.87-.77-2.47-.35-1.2-.78-2.82-1.23-4.78a23.91,23.91,0,0,0,8.58,1.51A23.53,23.53,0,0,0,289.74,174.13Z" transform="translate(0 -9.8)"/><path class="cls-38" d="M288.34,179.17c-.25.82-.51,1.64-.78,2.47-.4,1.24-3.94,4.11-13.47,0,0,0-.31-.87-.77-2.47C273.31,179.17,283,182,288.34,179.17Z" transform="translate(0 -9.8)"/><path class="cls-36" d="M279.61,135.79h0l-4.08,5.26v.13a5.59,5.59,0,0,0,.64,2.6l4.81-8.21Z" transform="translate(0 -9.8)"/><path class="cls-36" d="M280.91,140.54l-3.33,5a5.46,5.46,0,0,1-1.06-1.14l4-4.26Z" transform="translate(0 -9.8)"/><path class="cls-36" d="M276.22,181.64a73.68,73.68,0,0,1-2-7.25c-2.3-10-5.07-29.15.82-48.79a74.06,74.06,0,0,1,6.5-15.25,19.88,19.88,0,0,0-1.21-1.58,72.46,72.46,0,0,0-7.42,16.83c-5.89,19.64-3.13,38.76-.83,48.79a73.68,73.68,0,0,0,2,7.25,18.4,18.4,0,0,0,8.78,1.78A21,21,0,0,1,276.22,181.64Z" transform="translate(0 -9.8)"/><circle class="cls-31" cx="213.18" cy="41.95" r="1.01"/><polygon class="cls-31" points="234.78 45.3 233.7 45.3 233.7 44.41 233.26 44.41 233.26 45.3 232.19 45.3 232.19 45.67 233.26 45.67 233.26 46.57 233.7 46.57 233.7 45.67 234.78 45.67 234.78 45.3"/><polygon class="cls-31" points="222.77 14.54 221.86 14.54 221.86 13.64 221.5 13.64 221.5 14.54 220.6 14.54 220.6 14.91 221.5 14.91 221.5 15.81 221.86 15.81 221.86 14.91 222.77 14.91 222.77 14.54"/><ellipse class="cls-39" cx="63.49" cy="175.69" rx="63.49" ry="14.06"/><circle class="cls-6" cx="76.51" cy="47.02" r="3.66"/><path class="cls-35" d="M52.75,123.06l-3.1.34a41.66,41.66,0,0,0,0,14.47c1.38,8.27,3.1,16.54,3.1,16.54s1.38,26.87,2.07,27.21,6.89,2.41,7.23.35.35-49.27.35-49.27l4.82,22.74S67.91,184,69.29,184s5.85-.34,5.85-2.75,1-34.11,1-34.11-.35-23.42-1.73-24.11S52.75,123.06,52.75,123.06Z" transform="translate(0 -9.8)"/><path class="cls-40" d="M55.51,180.59s-3.1-.34-3.79,0a2.75,2.75,0,0,0,0,4.13c1.72,1.38,6.2,3.45,7.58,3.45a7.11,7.11,0,0,0,2.75-.69l-.69-5.86Z" transform="translate(0 -9.8)"/><path class="cls-40" d="M69.29,182.31l.34,4.83s4.48.68,4.82,0,3.79-2.42,4.14-2.76.69-4.13-1.38-4.48-2.76.69-2.76.69Z" transform="translate(0 -9.8)"/><path class="cls-41" d="M40.35,94.12s-8.27,7.92-7.24,12.06,9.31,16.19,9.31,16.19,7.92,4.13,8.95,0-5.51-3.1-5.51-3.1l-5.17-12.4,5.86-8.27Z" transform="translate(0 -9.8)"/><path class="cls-41" d="M77.29,82.07s7.53-4.85,7.36-8.17-4.72-13.82-4.72-13.82-3.55-7.39-5-4.37,1.86,6.23,1.86,6.23l2.11,10.29L73.2,77.7Z" transform="translate(0 -9.8)"/><circle class="cls-41" cx="58.61" cy="59.17" r="6.2"/><path class="cls-41" d="M55.51,72.76l1,6.55,7.58-1.38s-.35-6.55-.35-7.23S55.51,72.76,55.51,72.76Z" transform="translate(0 -9.8)"/><path class="cls-38" d="M55.16,79.31s8.61-2.07,9.65-1.38S71,79.31,71,79.31l5.86,9L75.14,99.63s-.34,18.26.35,21.36S80,124.44,72,125.13s-9.3-.35-14.81,1-10-.69-8.61-2.07,3.79-23.42,1-25.49-3.79-12.75-3.79-12.75S55.16,81,55.16,79.31Z" transform="translate(0 -9.8)"/><path class="cls-38" d="M70,80.34l1-1,2.07-2.07s6.71,2.93,6.37,4-2.58,7.07-2.58,7.07l-3.11,1Z" transform="translate(0 -9.8)"/><path class="cls-38" d="M50,86.54l-4.13-.69s-3.1,3.45-4.13,4.83-3.1,4.82-3.1,4.82l7.23,5.17,5.51-5.86Z" transform="translate(0 -9.8)"/><path class="cls-40" d="M60.77,61.46l-.06-.5a4,4,0,0,0-1.24.2,2,2,0,0,1,.07-.89,3.9,3.9,0,0,0-1.15.5l-.25-.91-3.44,1.7A7.3,7.3,0,0,0,51.45,64a5.24,5.24,0,0,0-.11,4.45,37.66,37.66,0,0,0,2.15,4.07,10,10,0,0,0,1,1.67,4.66,4.66,0,0,0,5.66,1,3.26,3.26,0,0,0,1.57-1.62A10.05,10.05,0,0,0,62,72.22c.22-.92.49-2.83,1.24-3.42.33-.26,1,.6,1.26.28A2.94,2.94,0,0,0,64.64,66a21.43,21.43,0,0,0-1.47-2.86A13.82,13.82,0,0,0,60.77,61.46Z" transform="translate(0 -9.8)"/><path class="cls-5" d="M279.29,92H156.84a1.66,1.66,0,0,1-1.66-1.66V14.49H281V90.33A1.66,1.66,0,0,1,279.29,92Z" transform="translate(0 -9.8)"/><path class="cls-6" d="M280.89,16.83H155.13V13a1.66,1.66,0,0,1,1.66-1.66H279.24A1.65,1.65,0,0,1,280.89,13Z" transform="translate(0 -9.8)"/><path class="cls-4" d="M158.64,86.9V20.1A1.22,1.22,0,0,1,160,19H275.68A1.22,1.22,0,0,1,277,20.1V86.9a1.22,1.22,0,0,1-1.32,1.1H160A1.22,1.22,0,0,1,158.64,86.9Z" transform="translate(0 -9.8)"/><path id="bace2d87-5197-4941-a2a9-430573aeaafe" class="cls-42" d="M238.47,32.92a1.38,1.38,0,0,1,0,2.76H205a1.38,1.38,0,0,1-.05-2.76h33.56Z" transform="translate(0 -9.8)"/><path class="cls-6" d="M214.92,56.74a3.42,3.42,0,1,1,3.42,3.42h0A3.42,3.42,0,0,1,214.92,56.74Z" transform="translate(0 -9.8)"/><path class="cls-4" d="M217,56.4h1v-1a.34.34,0,0,1,.34-.34.34.34,0,0,1,.33.34v1h1a.34.34,0,0,1,0,.68h-1v1a.34.34,0,1,1-.67,0v-1h-1a.34.34,0,0,1,0-.68Z" transform="translate(0 -9.8)"/><path class="cls-42" d="M177.7,46.37a5.35,5.35,0,0,1-.33,1.85A4.63,4.63,0,0,1,177,49a5.29,5.29,0,0,1-7.23,2,5.2,5.2,0,0,1-2-2,2,2,0,0,1-.14-.25,5.3,5.3,0,1,1,10-2.38Z" transform="translate(0 -9.8)"/><circle class="cls-6" cx="172.68" cy="36.45" r="1.01"/><path class="cls-4" d="M167.67,48.75c.45-.48,1.05-1.25,1.6-.69.29.26.73.91,1.15.48l3.28-3.28a.65.65,0,0,1,.92,0h0l2.74,2.95A4.63,4.63,0,0,1,177,49h-9.19Z" transform="translate(0 -9.8)"/><path id="b7942184-1937-424d-bfb8-0f5cbccd1754" class="cls-6" d="M173.13,67.15a.64.64,0,0,0-.64.64.64.64,0,0,0,.64.64h6.72a.64.64,0,0,0,0-1.28h-6.72Z" transform="translate(0 -9.8)"/><path id="fb1c7c97-2f14-459a-90b9-db1c1611151d" class="cls-43" d="M163.51,56.75c-.16,0-.29.28-.29.64s.13.64.29.64H180.7c.17,0,.3-.29.3-.64s-.13-.64-.3-.64Z" transform="translate(0 -9.8)"/><path id="a8d81b82-d579-4ad6-943a-4e62cbc3ee6d" class="cls-43" d="M163.51,61.45c-.16,0-.29.29-.29.64s.13.64.29.64H180.7c.17,0,.3-.29.3-.64s-.13-.64-.3-.64Z" transform="translate(0 -9.8)"/><path id="ad508716-dd53-4b89-baf2-189976f7f922" class="cls-44" d="M232.26,76.56a.64.64,0,0,0-.64.64.63.63,0,0,0,.64.64H239a.63.63,0,0,0,.64-.63.65.65,0,0,0-.64-.65h-6.72Z" transform="translate(0 -9.8)"/><path id="bffef029-080d-4bbe-bc48-e2786c2c075f" class="cls-43" d="M197,72.45a.64.64,0,1,0,0,1.28h42.09a.64.64,0,1,0,0-1.28Z" transform="translate(0 -9.8)"/><path class="cls-45" d="M174.77,23.25H164.09a1,1,0,0,0-1.09,1h0V35a1.14,1.14,0,0,0,1.09,1.1h10.68a1.07,1.07,0,0,0,1-1.1V24.25a1,1,0,0,0-1-1ZM167,33.92h-1.84v-5.7H167Zm-.86-6.57h0a1,1,0,1,1,1-1A1,1,0,0,1,166.1,27.35Zm7.55,6.57h-1.83V30.8c0-.74-.27-1.25-.93-1.25a1,1,0,0,0-.94.67,1.17,1.17,0,0,0-.06.45v3.25h-1.83v-5.7h1.83V29a1.85,1.85,0,0,1,1.65-.92c1.2,0,2.11.79,2.11,2.5Z" transform="translate(0 -9.8)"/><path class="cls-45" d="M201,32h-4.37a.43.43,0,0,0-.45.41h0v4.38a.47.47,0,0,0,.45.45H201a.44.44,0,0,0,.42-.45V32.37a.41.41,0,0,0-.39-.41Z" transform="translate(0 -9.8)"/><path class="cls-4" d="M197.7,33H198l1.05,2.84h-.43l-.79-2.29-.79,2.29h-.43Zm-.56,1.84h1.49v.38h-1.49Z" transform="translate(0 -9.8)"/><path class="cls-4" d="M199.74,35.76a.73.73,0,0,1-.24-.28,1.25,1.25,0,0,1-.08-.45v-.45a1.15,1.15,0,0,1,.08-.44.61.61,0,0,1,.23-.29.72.72,0,0,1,.37-.09.63.63,0,0,1,.33.09.64.64,0,0,1,.24.27l0,.41a.48.48,0,0,0,0-.22.29.29,0,0,0-.13-.14.48.48,0,0,0-.22-.05.38.38,0,0,0-.3.12.49.49,0,0,0-.11.35V35a.45.45,0,0,0,.11.34.46.46,0,0,0,.52.07.29.29,0,0,0,.13-.14.52.52,0,0,0,0-.23l0,.43a.55.55,0,0,1-.2.25.55.55,0,0,1-.34.11A.74.74,0,0,1,199.74,35.76Zm.89-2.78h.4v2.84h-.4Z" transform="translate(0 -9.8)"/><path id="a72d9b4a-b989-4cba-a906-09fc03867249" class="cls-43" d="M196.68,38.53a.64.64,0,1,0,0,1.28h42.17a.64.64,0,1,0,0-1.28Z" transform="translate(0 -9.8)"/><path id="a72d9b4a-b989-4cba-a906-09fc03867249-2" data-name="a72d9b4a-b989-4cba-a906-09fc03867249" class="cls-43" d="M196.68,41.34a.64.64,0,1,0,0,1.28h42.17a.64.64,0,1,0,0-1.28Z" transform="translate(0 -9.8)"/><path id="a72d9b4a-b989-4cba-a906-09fc03867249-3" data-name="a72d9b4a-b989-4cba-a906-09fc03867249" class="cls-43" d="M196.68,44.15a.64.64,0,1,0,0,1.28h42.17a.64.64,0,1,0,0-1.28Z" transform="translate(0 -9.8)"/><path id="bace2d87-5197-4941-a2a9-430573aeaafe-2" data-name="bace2d87-5197-4941-a2a9-430573aeaafe" class="cls-42" d="M238.21,68.13a1.4,1.4,0,1,1,0,2.77H198.06a1.53,1.53,0,0,1-1.63-1.36A1.51,1.51,0,0,1,198,68.13h40.2Z" transform="translate(0 -9.8)"/><path id="ad508716-dd53-4b89-baf2-189976f7f922-2" data-name="ad508716-dd53-4b89-baf2-189976f7f922" class="cls-44" d="M220.5,76.56a.64.64,0,0,0-.64.64.64.64,0,0,0,.64.64h6.72a.63.63,0,0,0,.65-.63.65.65,0,0,0-.64-.65H220.5Z" transform="translate(0 -9.8)"/><path id="ad508716-dd53-4b89-baf2-189976f7f922-3" data-name="ad508716-dd53-4b89-baf2-189976f7f922" class="cls-44" d="M208.75,76.56a.64.64,0,0,0-.64.64.64.64,0,0,0,.64.64h6.72a.63.63,0,0,0,.64-.63.64.64,0,0,0-.64-.65h-6.72Z" transform="translate(0 -9.8)"/><path id="ad508716-dd53-4b89-baf2-189976f7f922-4" data-name="ad508716-dd53-4b89-baf2-189976f7f922" class="cls-44" d="M197,76.56a.64.64,0,1,0,0,1.28h6.72a.63.63,0,0,0,.64-.63.65.65,0,0,0-.64-.65H197Z" transform="translate(0 -9.8)"/><path class="cls-42" d="M253.54,35.68a2.91,2.91,0,0,1-.17,1,3.23,3.23,0,0,1-.2.42,2.79,2.79,0,0,1-3.8,1,2.75,2.75,0,0,1-1-1l-.07-.13a2.78,2.78,0,1,1,5-2.51,2.71,2.71,0,0,1,.3,1.25Z" transform="translate(0 -9.8)"/><circle class="cls-6" cx="250.9" cy="25.82" r="0.53"/><path class="cls-4" d="M248.27,36.94c.23-.26.54-.66.84-.37.15.14.38.48.6.26l1.73-1.73a.34.34,0,0,1,.48,0h0l1.44,1.54a3.23,3.23,0,0,1-.2.42h-4.83Z" transform="translate(0 -9.8)"/><path id="fb1c7c97-2f14-459a-90b9-db1c1611151d-2" data-name="fb1c7c97-2f14-459a-90b9-db1c1611151d" class="cls-43" d="M255,33.7c-.14,0-.26.19-.26.42s.12.42.26.42h15.11c.15,0,.26-.19.26-.42s-.11-.42-.26-.42Z" transform="translate(0 -9.8)"/><path id="fb1c7c97-2f14-459a-90b9-db1c1611151d-3" data-name="fb1c7c97-2f14-459a-90b9-db1c1611151d" class="cls-43" d="M255,35.17c-.14,0-.26.19-.26.42s.12.42.26.42h15.11c.15,0,.26-.18.26-.42s-.11-.42-.26-.42Z" transform="translate(0 -9.8)"/><path id="fb1c7c97-2f14-459a-90b9-db1c1611151d-4" data-name="fb1c7c97-2f14-459a-90b9-db1c1611151d" class="cls-43" d="M255,36.65c-.14,0-.26.19-.26.42s.12.42.26.42h15.11c.15,0,.26-.19.26-.42s-.11-.42-.26-.42Z" transform="translate(0 -9.8)"/><path class="cls-42" d="M253.54,42.62a3,3,0,0,1-.17,1,3.11,3.11,0,0,1-.2.41,2.78,2.78,0,0,1-3.8,1,2.75,2.75,0,0,1-1-1,.83.83,0,0,1-.07-.13,2.78,2.78,0,1,1,5-2.51,2.74,2.74,0,0,1,.3,1.25Z" transform="translate(0 -9.8)"/><circle class="cls-6" cx="250.9" cy="32.76" r="0.53"/><path class="cls-4" d="M248.27,43.88c.23-.26.54-.66.84-.37.15.14.38.48.6.26L251.44,42a.34.34,0,0,1,.48,0h0l1.44,1.55a3.11,3.11,0,0,1-.2.41h-4.83Z" transform="translate(0 -9.8)"/><path id="fb1c7c97-2f14-459a-90b9-db1c1611151d-5" data-name="fb1c7c97-2f14-459a-90b9-db1c1611151d" class="cls-43" d="M255,40.64c-.14,0-.26.19-.26.42s.12.42.26.42h15.11c.15,0,.26-.19.26-.42s-.11-.42-.26-.42Z" transform="translate(0 -9.8)"/><path id="fb1c7c97-2f14-459a-90b9-db1c1611151d-6" data-name="fb1c7c97-2f14-459a-90b9-db1c1611151d" class="cls-43" d="M255,42.12c-.14,0-.26.18-.26.42s.12.42.26.42h15.11c.15,0,.26-.19.26-.42s-.11-.42-.26-.42Z" transform="translate(0 -9.8)"/><path id="fb1c7c97-2f14-459a-90b9-db1c1611151d-7" data-name="fb1c7c97-2f14-459a-90b9-db1c1611151d" class="cls-43" d="M255,43.59c-.14,0-.26.19-.26.42s.12.42.26.42h15.11c.15,0,.26-.19.26-.42s-.11-.42-.26-.42Z" transform="translate(0 -9.8)"/><path class="cls-42" d="M253.54,49a2.91,2.91,0,0,1-.17,1,3.23,3.23,0,0,1-.2.42,2.79,2.79,0,0,1-3.8,1,2.75,2.75,0,0,1-1-1l-.07-.13a2.78,2.78,0,1,1,5-2.51,2.74,2.74,0,0,1,.3,1.25Z" transform="translate(0 -9.8)"/><circle class="cls-6" cx="250.9" cy="39.17" r="0.53"/><path class="cls-4" d="M248.27,50.29c.23-.26.54-.66.84-.37.15.14.38.48.6.26l1.73-1.73a.34.34,0,0,1,.48,0h0L253.37,50a3.23,3.23,0,0,1-.2.42h-4.83Z" transform="translate(0 -9.8)"/><path id="fb1c7c97-2f14-459a-90b9-db1c1611151d-8" data-name="fb1c7c97-2f14-459a-90b9-db1c1611151d" class="cls-43" d="M255,47.05c-.14,0-.26.19-.26.42s.12.42.26.42h15.11c.15,0,.26-.19.26-.42s-.11-.42-.26-.42Z" transform="translate(0 -9.8)"/><path id="fb1c7c97-2f14-459a-90b9-db1c1611151d-9" data-name="fb1c7c97-2f14-459a-90b9-db1c1611151d" class="cls-43" d="M255,48.52c-.14,0-.26.19-.26.42s.12.42.26.42h15.11c.15,0,.26-.18.26-.42s-.11-.42-.26-.42Z" transform="translate(0 -9.8)"/><path id="fb1c7c97-2f14-459a-90b9-db1c1611151d-10" data-name="fb1c7c97-2f14-459a-90b9-db1c1611151d" class="cls-43" d="M255,50c-.14,0-.26.19-.26.42s.12.42.26.42h15.11c.15,0,.26-.19.26-.42s-.11-.42-.26-.42Z" transform="translate(0 -9.8)"/><path class="cls-46" d="M70.31,51.75c.5-.31,2.31-1.41,5.17-3" transform="translate(0 -9.8)"/><path class="cls-47" d="M86.77,42.49c28.08-14.81,84.9-40.2,115.47-22.2l.65.39" transform="translate(0 -9.8)"/><path class="cls-46" d="M208.06,24.55a36.6,36.6,0,0,1,4.1,4.37" transform="translate(0 -9.8)"/><path class="cls-34" d="M94.72,146.62a4.25,4.25,0,0,0-.6.31,1,1,0,0,0-.31.28.36.36,0,0,0,0,.4.6.6,0,0,0,.44.16.82.82,0,0,0,.79-.27l.34-.3c.12-.11.25-.25.2-.4a.35.35,0,0,0-.29-.2,1.23,1.23,0,0,0-.84.15" transform="translate(0 -9.8)"/><circle class="cls-34" cx="93.31" cy="140.87" r="0.21"/><circle class="cls-34" cx="97.51" cy="139.56" r="0.76"/><path class="cls-34" d="M98.82,146.76h0a1,1,0,1,1-1.17-1h0A4.15,4.15,0,0,1,98.82,146.76Z" transform="translate(0 -9.8)"/><path class="cls-34" d="M98.9,151.38a3.93,3.93,0,0,1-3,1.65v-.16A1.87,1.87,0,0,1,97.79,151a1.83,1.83,0,0,1,1.12.38Z" transform="translate(0 -9.8)"/><g class="cls-1"><path class="cls-48" d="M31.75,127.73h0a3.18,3.18,0,0,0-.93-.82h0a3.12,3.12,0,1,0-1.56,5.82h.2a3.13,3.13,0,0,0,2.29-5Z" transform="translate(0 -9.8)"/></g><path class="cls-3" d="M32.21,129.61a3,3,0,0,1-2.77,2.95h-.18a3,3,0,0,1-3-3,2.93,2.93,0,0,1,3-2.94,2.89,2.89,0,0,1,1.47.39h0a2.86,2.86,0,0,1,.88.78h0A2.94,2.94,0,0,1,32.21,129.61Z" transform="translate(0 -9.8)"/><path class="cls-34" d="M28.53,127.74a4.78,4.78,0,0,0-.45.23.77.77,0,0,0-.23.21.27.27,0,0,0,0,.3.41.41,0,0,0,.33.12.62.62,0,0,0,.6-.2l.25-.23c.09-.08.18-.19.15-.3a.27.27,0,0,0-.22-.15.88.88,0,0,0-.63.12" transform="translate(0 -9.8)"/><circle class="cls-34" cx="27.47" cy="120.98" r="0.16"/><circle class="cls-34" cx="30.63" cy="119.99" r="0.57"/><path class="cls-34" d="M31.61,127.84h0a.77.77,0,0,1-.78.77.78.78,0,0,1-.1-1.55h0A3,3,0,0,1,31.61,127.84Z" transform="translate(0 -9.8)"/><path class="cls-34" d="M31.67,131.31a3,3,0,0,1-2.22,1.25v-.13a1.39,1.39,0,0,1,1.39-1.4,1.41,1.41,0,0,1,.84.28Z" transform="translate(0 -9.8)"/><g class="cls-1"><path class="cls-49" d="M31.51,163.63h0a3.13,3.13,0,0,0-.9-.8h0a3,3,0,0,0-3.05,5.23,3.09,3.09,0,0,0,1.54.41h.19a3,3,0,0,0,2.82-3.21,3.09,3.09,0,0,0-.6-1.63Z" transform="translate(0 -9.8)"/></g><path class="cls-3" d="M32,165.45a2.85,2.85,0,0,1-2.68,2.85h-.18A2.86,2.86,0,1,1,30.52,163h0a3.08,3.08,0,0,1,.86.75h0A2.85,2.85,0,0,1,32,165.45Z" transform="translate(0 -9.8)"/><path class="cls-34" d="M28.39,163.64a2.89,2.89,0,0,0-.43.22.58.58,0,0,0-.23.21.24.24,0,0,0,0,.28.38.38,0,0,0,.32.12.63.63,0,0,0,.58-.19l.24-.22c.09-.08.18-.19.15-.29a.27.27,0,0,0-.21-.15.9.9,0,0,0-.62.11" transform="translate(0 -9.8)"/><circle class="cls-34" cx="27.36" cy="156.78" r="0.15"/><circle class="cls-34" cx="30.42" cy="155.83" r="0.55"/><path class="cls-34" d="M31.38,163.73h0a.76.76,0,1,1-1.51,0,.75.75,0,0,1,.65-.74h0A3,3,0,0,1,31.38,163.73Z" transform="translate(0 -9.8)"/><path class="cls-34" d="M31.43,167.1a2.87,2.87,0,0,1-2.15,1.21v-.12a1.35,1.35,0,0,1,1.35-1.36,1.37,1.37,0,0,1,.82.27Z" transform="translate(0 -9.8)"/><polygon class="cls-31" points="93.08 105.3 92.18 105.3 92.18 104.4 91.81 104.4 91.81 105.3 90.91 105.3 90.91 105.67 91.81 105.67 91.81 106.57 92.18 106.57 92.18 105.67 93.08 105.67 93.08 105.3"/><polygon class="cls-31" points="125.08 93.3 124.18 93.3 124.18 92.4 123.81 92.4 123.81 93.3 122.91 93.3 122.91 93.67 123.81 93.67 123.81 94.57 124.18 94.57 124.18 93.67 125.08 93.67 125.08 93.3"/><circle class="cls-31" cx="127.99" cy="116.48" r="1.01"/><circle class="cls-31" cx="132.99" cy="152.48" r="1.01"/></svg>